<svg xmlns="http://www.w3.org/2000/svg" xmlns:xlink="http://www.w3.org/1999/xlink" xmlns:lucid="lucid" width="638.27" height="329.33"><g transform="translate(-467.33802469131916 -284.33333333337214)" lucid:page-tab-id="0_0"><path d="M746.33 310.33c0-3.3 2.7-6 6-6h99.87c3.3 0 6 2.7 6 6V335c0 3.32-2.7 6-6 6h-99.87c-3.3 0-6-2.68-6-6z" fill="none"/><use xlink:href="#a" transform="matrix(1,0,0,1,751.3333333332945,309.33333333337214) translate(0 17.77777777777778)"/><use xlink:href="#b" transform="matrix(1,0,0,1,751.3333333332945,309.33333333337214) translate(45.67901234567901 17.77777777777778)"/><use xlink:href="#c" transform="matrix(1,0,0,1,751.3333333332945,309.33333333337214) translate(64.81481481481481 17.77777777777778)"/><path d="M549.14 441c0-3.3 2.68-6 6-6H719.5c3.32 0 6 2.7 6 6v24.68c0 3.3-2.68 6-6 6H555.15c-3.32 0-6-2.7-6-6z" fill="none"/><use xlink:href="#d" transform="matrix(1,0,0,1,554.1381481481093,440.00000000003877) translate(0 17.77777777777778)"/><use xlink:href="#e" transform="matrix(1,0,0,1,554.1381481481093,440.00000000003877) translate(81.29629629629629 17.77777777777778)"/><path d="M802.26 342v40c0 3.32-2.68 6-6 6H643.32c-3.3 0-6 2.7-6 6v22.5" stroke="#333" stroke-width="2" fill="none"/><path d="M803.26 342.04h-2V341h2z" fill="#333"/><path d="M637.32 431.76l-4.63-14.26h9.26z" stroke="#333" stroke-width="2" fill="#fff"/><path d="M833 441c0-3.3 2.7-6 6-6h147.95c3.3 0 6 2.7 6 6v24.68c0 3.3-2.7 6-6 6H839c-3.3 0-6-2.7-6-6z" fill="none"/><use xlink:href="#f" transform="matrix(1,0,0,1,837.9999999999612,440.00000000003877) translate(0 17.77777777777778)"/><use xlink:href="#b" transform="matrix(1,0,0,1,837.9999999999612,440.00000000003877) translate(78.95061728395062 17.77777777777778)"/><use xlink:href="#g" transform="matrix(1,0,0,1,837.9999999999612,440.00000000003877) translate(98.08641975308642 17.77777777777778)"/><path d="M802.26 342v40c0 3.32 2.7 6 6 6h98.7c3.33 0 6 2.7 6 6v22.5" stroke="#333" stroke-width="2" fill="none"/><path d="M803.26 342.04h-2V341h2z" fill="#333"/><path d="M912.97 431.76l-4.63-14.26h9.27z" stroke="#333" stroke-width="2" fill="#fff"/><path d="M487.34 563c0-3.32 2.68-6 6-6h49.8c3.3 0 6 2.68 6 6v24.67c0 3.3-2.7 6-6 6h-49.8c-3.32 0-6-2.7-6-6z" fill="none"/><use xlink:href="#h" transform="matrix(1,0,0,1,492.33802469131916,561.9900000000388) translate(0 17.77777777777778)"/><path d="M682.33 563c0-3.32 2.7-6 6-6H769c3.3 0 6 2.68 6 6v24.67c0 3.3-2.7 6-6 6h-80.67c-3.3 0-6-2.7-6-6z" fill="none"/><use xlink:href="#i" transform="matrix(1,0,0,1,687.3333333332945,561.9900000000388) translate(0 17.77777777777778)"/><path d="M992.95 563c0-3.32 2.68-6 6-6h80.66c3.33 0 6 2.68 6 6v24.67c0 3.3-2.67 6-6 6h-80.65c-3.32 0-6-2.7-6-6z" fill="none"/><use xlink:href="#i" transform="matrix(1,0,0,1,997.9482716048994,561.9900000000388) translate(0 17.77777777777778)"/><path d="M803.67 563c0-3.32 2.68-6 6-6h49.8c3.3 0 6 2.68 6 6v24.67c0 3.3-2.7 6-6 6h-49.8c-3.32 0-6-2.7-6-6z" fill="none"/><use xlink:href="#h" transform="matrix(1,0,0,1,808.6666666666277,561.9900000000388) translate(0 17.77777777777778)"/><path d="M637.32 472.68v35.65c0 3.32-2.68 6-6 6H524.24c-3.32 0-6 2.7-6 6v18.16" stroke="#333" stroke-width="2" fill="none"/><path d="M638.32 472.7h-2v-1.02h2z" fill="#333"/><path d="M518.24 553.75l-4.64-14.26h9.27z" stroke="#333" stroke-width="2" fill="#fff"/><path d="M637.32 472.68v35.65c0 3.32 2.7 6 6 6h79.35c3.3 0 6 2.7 6 6v18.16" stroke="#333" stroke-width="2" fill="none"/><path d="M638.32 472.7h-2v-1.02h2z" fill="#333"/><path d="M728.67 553.75l-4.64-14.26h9.27z" stroke="#333" stroke-width="2" fill="#fff"/><path d="M912.97 472.68v35.65c0 3.32-2.68 6-6 6h-66.4c-3.32 0-6 2.7-6 6v18.16" stroke="#333" stroke-width="2" fill="none"/><path d="M913.97 472.7h-2v-1.02h2z" fill="#333"/><path d="M834.57 553.75l-4.64-14.26h9.27z" stroke="#333" stroke-width="2" fill="#fff"/><path d="M912.97 472.68v35.65c0 3.32 2.7 6 6 6h114.3c3.32 0 6 2.7 6 6v18.16" stroke="#333" stroke-width="2" fill="none"/><path d="M913.97 472.7h-2v-1.02h2z" fill="#333"/><path d="M1039.28 553.75l-4.63-14.26h9.27z" stroke="#333" stroke-width="2" fill="#fff"/><path d="M650.33 477.68c0-3.32 2.7-6 6-6h12.83c3.3 0 6 2.68 6 6v24.67c0 3.32-2.7 6-6 6h-12.83c-3.3 0-6-2.68-6-6z" fill="none"/><use xlink:href="#j" transform="matrix(1,0,0,1,655.333333333372,476.67666666670544) translate(0 17.77777777777778)"/><path d="M595.67 477.68c0-3.32 2.68-6 6-6h14c3.3 0 6 2.68 6 6v24.67c0 3.32-2.7 6-6 6h-14c-3.32 0-6-2.68-6-6z" fill="none"/><use xlink:href="#k" transform="matrix(1,0,0,1,600.6666666667053,476.67666666670544) translate(0 17.77777777777778)"/><path d="M816.18 347c0-3.3 2.68-6 6-6H835c3.3 0 6 2.7 6 6v24.7c0 3.3-2.7 6-6 6h-12.82c-3.32 0-6-2.7-6-6z" fill="none"/><use xlink:href="#j" transform="matrix(1,0,0,1,821.1751851851465,346.0100000000388) translate(0 17.77777777777778)"/><path d="M761 347c0-3.3 2.7-6 6-6h14c3.3 0 6 2.7 6 6v24.7c0 3.3-2.7 6-6 6h-14c-3.3 0-6-2.7-6-6z" fill="none"/><use xlink:href="#k" transform="matrix(1,0,0,1,766.0000000000385,346.0100000000388) translate(0 17.77777777777778)"/><path d="M925.5 477.68c0-3.32 2.7-6 6-6h12.83c3.32 0 6 2.68 6 6v24.67c0 3.32-2.68 6-6 6H931.5c-3.3 0-6-2.68-6-6z" fill="none"/><g><use xlink:href="#j" transform="matrix(1,0,0,1,930.5085185184798,476.67666666670544) translate(0 17.77777777777778)"/></g><path d="M877.67 477.68c0-3.32 2.68-6 6-6h14c3.3 0 6 2.68 6 6v24.67c0 3.32-2.7 6-6 6h-14c-3.32 0-6-2.68-6-6z" fill="none"/><g><use xlink:href="#k" transform="matrix(1,0,0,1,882.6678395061728,476.67666666670544) translate(0 17.77777777777778)"/></g><defs><path fill="#333" d="M205 0l-28-72H64L36 0H1l101-248h38L239 0h-34zm-38-99l-47-123c-12 45-31 82-46 123h93" id="l"/><path fill="#333" d="M177-190C167-65 218 103 67 71c-23-6-38-20-44-43l32-5c15 47 100 32 89-28v-30C133-14 115 1 83 1 29 1 15-40 15-95c0-56 16-97 71-98 29-1 48 16 59 35 1-10 0-23 2-32h30zM94-22c36 0 50-32 50-73 0-42-14-75-50-75-39 0-46 34-46 75s6 73 46 73" id="m"/><path fill="#333" d="M100-194c63 0 86 42 84 106H49c0 40 14 67 53 68 26 1 43-12 49-29l28 8c-11 28-37 45-77 45C44 4 14-33 15-96c1-61 26-98 85-98zm52 81c6-60-76-77-97-28-3 7-6 17-6 28h103" id="n"/><g id="a"><use transform="matrix(0.06172839506172839,0,0,0.06172839506172839,0,0)" xlink:href="#l"/><use transform="matrix(0.06172839506172839,0,0,0.06172839506172839,14.814814814814813,0)" xlink:href="#m"/><use transform="matrix(0.06172839506172839,0,0,0.06172839506172839,27.160493827160494,0)" xlink:href="#n"/></g><path fill="#333" d="M18-27v-27l151-64-151-65v-27l175 74v36" id="o"/><use transform="matrix(0.06172839506172839,0,0,0.06172839506172839,0,0)" xlink:href="#o" id="b"/><path fill="#333" d="M101-251c82-7 93 87 43 132L82-64C71-53 59-42 53-27h129V0H18c2-99 128-94 128-182 0-28-16-43-45-43s-46 15-49 41l-32-3c6-41 34-60 81-64" id="p"/><path fill="#333" d="M99-251c64 0 84 50 84 122C183-37 130 33 47-8c-14-7-20-23-25-40l30-5c6 39 69 39 84 7 9-19 16-44 16-74-10 22-31 35-62 35-49 0-73-33-73-83 0-54 28-83 82-83zm-1 141c31-1 51-18 51-49 0-36-14-67-51-67-34 0-49 23-49 58 0 34 15 58 49 58" id="q"/><path fill="#333" d="M103-251c84 0 111 97 45 133-19 10-37 24-39 52H78c0-63 77-55 77-114 0-30-21-42-52-43-32 0-53 17-56 46l-32-2c7-45 34-72 88-72zM77 0v-35h34V0H77" id="r"/><g id="c"><use transform="matrix(0.06172839506172839,0,0,0.06172839506172839,0,0)" xlink:href="#p"/><use transform="matrix(0.06172839506172839,0,0,0.06172839506172839,12.345679012345679,0)" xlink:href="#q"/><use transform="matrix(0.06172839506172839,0,0,0.06172839506172839,24.691358024691358,0)" xlink:href="#r"/></g><path fill="#333" d="M212-179c-10-28-35-45-73-45-59 0-87 40-87 99 0 60 29 101 89 101 43 0 62-24 78-52l27 14C228-24 195 4 139 4 59 4 22-46 18-125c-6-104 99-153 187-111 19 9 31 26 39 46" id="s"/><path fill="#333" d="M100-194c62-1 85 37 85 99 1 63-27 99-86 99S16-35 15-95c0-66 28-99 85-99zM99-20c44 1 53-31 53-75 0-43-8-75-51-75s-53 32-53 75 10 74 51 75" id="t"/><path fill="#333" d="M24 0v-261h32V0H24" id="u"/><g id="d"><use transform="matrix(0.06172839506172839,0,0,0.06172839506172839,0,0)" xlink:href="#s"/><use transform="matrix(0.06172839506172839,0,0,0.06172839506172839,15.987654320987653,0)" xlink:href="#t"/><use transform="matrix(0.06172839506172839,0,0,0.06172839506172839,28.333333333333332,0)" xlink:href="#u"/><use transform="matrix(0.06172839506172839,0,0,0.06172839506172839,33.20987654320987,0)" xlink:href="#u"/><use transform="matrix(0.06172839506172839,0,0,0.06172839506172839,38.08641975308642,0)" xlink:href="#n"/><use transform="matrix(0.06172839506172839,0,0,0.06172839506172839,50.432098765432094,0)" xlink:href="#m"/><use transform="matrix(0.06172839506172839,0,0,0.06172839506172839,62.77777777777777,0)" xlink:href="#n"/></g><path fill="#333" d="M30-248c118-7 216 8 213 122C240-48 200 0 122 0H30v-248zM63-27c89 8 146-16 146-99s-60-101-146-95v194" id="v"/><path fill="#333" d="M114-163C36-179 61-72 57 0H25l-1-190h30c1 12-1 29 2 39 6-27 23-49 58-41v29" id="w"/><g id="e"><use transform="matrix(0.06172839506172839,0,0,0.06172839506172839,0,0)" xlink:href="#v"/><use transform="matrix(0.06172839506172839,0,0,0.06172839506172839,15.987654320987653,0)" xlink:href="#n"/><use transform="matrix(0.06172839506172839,0,0,0.06172839506172839,28.333333333333332,0)" xlink:href="#m"/><use transform="matrix(0.06172839506172839,0,0,0.06172839506172839,40.67901234567901,0)" xlink:href="#w"/><use transform="matrix(0.06172839506172839,0,0,0.06172839506172839,48.02469135802469,0)" xlink:href="#n"/><use transform="matrix(0.06172839506172839,0,0,0.06172839506172839,60.37037037037037,0)" xlink:href="#n"/><use transform="matrix(0.06172839506172839,0,0,0.06172839506172839,72.71604938271605,0)" xlink:href="#r"/></g><path fill="#333" d="M33 0v-248h34V0H33" id="x"/><path fill="#333" d="M117-194c89-4 53 116 60 194h-32v-121c0-31-8-49-39-48C34-167 62-67 57 0H25l-1-190h30c1 10-1 24 2 32 11-22 29-35 61-36" id="y"/><path fill="#333" d="M96-169c-40 0-48 33-48 73s9 75 48 75c24 0 41-14 43-38l32 2c-6 37-31 61-74 61-59 0-76-41-82-99-10-93 101-131 147-64 4 7 5 14 7 22l-32 3c-4-21-16-35-41-35" id="z"/><path fill="#333" d="M210-169c-67 3-38 105-44 169h-31v-121c0-29-5-50-35-48C34-165 62-65 56 0H25l-1-190h30c1 10-1 24 2 32 10-44 99-50 107 0 11-21 27-35 58-36 85-2 47 119 55 194h-31v-121c0-29-5-49-35-48" id="A"/><g id="f"><use transform="matrix(0.06172839506172839,0,0,0.06172839506172839,0,0)" xlink:href="#x"/><use transform="matrix(0.06172839506172839,0,0,0.06172839506172839,6.172839506172839,0)" xlink:href="#y"/><use transform="matrix(0.06172839506172839,0,0,0.06172839506172839,18.51851851851852,0)" xlink:href="#z"/><use transform="matrix(0.06172839506172839,0,0,0.06172839506172839,29.62962962962963,0)" xlink:href="#t"/><use transform="matrix(0.06172839506172839,0,0,0.06172839506172839,41.97530864197531,0)" xlink:href="#A"/><use transform="matrix(0.06172839506172839,0,0,0.06172839506172839,60.4320987654321,0)" xlink:href="#n"/></g><path fill="#333" d="M101-251c68 0 85 55 85 127S166 4 100 4C33 4 14-52 14-124c0-73 17-127 87-127zm-1 229c47 0 54-49 54-102s-4-102-53-102c-51 0-55 48-55 102 0 53 5 102 54 102" id="B"/><path fill="#333" d="M194 0L95-120 63-95V0H30v-248h33v124l119-124h40L117-140 236 0h-42" id="C"/><g id="g"><use transform="matrix(0.06172839506172839,0,0,0.06172839506172839,0,0)" xlink:href="#p"/><use transform="matrix(0.06172839506172839,0,0,0.06172839506172839,12.345679012345679,0)" xlink:href="#B"/><use transform="matrix(0.06172839506172839,0,0,0.06172839506172839,24.691358024691358,0)" xlink:href="#C"/><use transform="matrix(0.06172839506172839,0,0,0.06172839506172839,39.50617283950617,0)" xlink:href="#r"/></g><path fill="#333" d="M179-190L93 31C79 59 56 82 12 73V49c39 6 53-20 64-50L1-190h34L92-34l54-156h33" id="D"/><g id="h"><use transform="matrix(0.06172839506172839,0,0,0.06172839506172839,0,0)" xlink:href="#v"/><use transform="matrix(0.06172839506172839,0,0,0.06172839506172839,15.987654320987653,0)" xlink:href="#n"/><use transform="matrix(0.06172839506172839,0,0,0.06172839506172839,28.333333333333332,0)" xlink:href="#y"/><use transform="matrix(0.06172839506172839,0,0,0.06172839506172839,40.67901234567901,0)" xlink:href="#D"/></g><path fill="#333" d="M115-194c55 1 70 41 70 98S169 2 115 4C84 4 66-9 55-30l1 105H24l-1-265h31l2 30c10-21 28-34 59-34zm-8 174c40 0 45-34 45-75s-6-73-45-74c-42 0-51 32-51 76 0 43 10 73 51 73" id="E"/><path fill="#333" d="M108 0H70L1-190h34L89-25l56-165h34" id="F"/><g id="i"><use transform="matrix(0.06172839506172839,0,0,0.06172839506172839,0,0)" xlink:href="#l"/><use transform="matrix(0.06172839506172839,0,0,0.06172839506172839,14.814814814814813,0)" xlink:href="#E"/><use transform="matrix(0.06172839506172839,0,0,0.06172839506172839,27.160493827160494,0)" xlink:href="#E"/><use transform="matrix(0.06172839506172839,0,0,0.06172839506172839,39.50617283950617,0)" xlink:href="#w"/><use transform="matrix(0.06172839506172839,0,0,0.06172839506172839,46.85185185185185,0)" xlink:href="#t"/><use transform="matrix(0.06172839506172839,0,0,0.06172839506172839,59.197530864197525,0)" xlink:href="#F"/><use transform="matrix(0.06172839506172839,0,0,0.06172839506172839,70.30864197530863,0)" xlink:href="#n"/></g><path fill="#333" d="M137-103V0h-34v-103L8-248h37l75 118 75-118h37" id="G"/><use transform="matrix(0.06172839506172839,0,0,0.06172839506172839,0,0)" xlink:href="#G" id="j"/><path fill="#333" d="M190 0L58-211 59 0H30v-248h39L202-35l-2-213h31V0h-41" id="H"/><use transform="matrix(0.06172839506172839,0,0,0.06172839506172839,0,0)" xlink:href="#H" id="k"/></defs></g></svg>